<svg width="21" height="20" viewBox="0 0 21 20" fill="none" xmlns="http://www.w3.org/2000/svg">
<path d="M14.4014 2.7082C15.4047 2.71109 16.366 3.09616 17.0754 3.77931C17.7848 4.46246 18.1847 5.38818 18.1877 6.3543V13.6457C18.1847 14.6118 17.7848 15.5375 17.0754 16.2207C16.366 16.9038 15.4047 17.2889 14.4014 17.2918H6.82963C5.82636 17.2889 4.86504 16.9038 4.15562 16.2207C3.4462 15.5375 3.04633 14.6118 3.04333 13.6457V6.3543C3.04633 5.38818 3.4462 4.46246 4.15562 3.77931C4.86504 3.09616 5.82636 2.71109 6.82963 2.7082H14.4014ZM14.4014 1.25H6.82963C3.91425 1.25 1.52905 3.54688 1.52905 6.3543V13.6457C1.52905 16.4531 3.91425 18.75 6.82963 18.75H14.4014C17.3168 18.75 19.702 16.4531 19.702 13.6457V6.3543C19.702 3.54688 17.3168 1.25 14.4014 1.25Z" fill="black"/>
<path d="M15.5372 6.3545C15.3125 6.3545 15.0929 6.29035 14.9062 6.17017C14.7194 6.04999 14.5738 5.87917 14.4878 5.67931C14.4019 5.47945 14.3794 5.25953 14.4232 5.04737C14.467 4.8352 14.5752 4.64031 14.734 4.48735C14.8929 4.33438 15.0953 4.23021 15.3156 4.18801C15.5359 4.14581 15.7643 4.16747 15.9718 4.25025C16.1794 4.33303 16.3568 4.47322 16.4816 4.65309C16.6064 4.83296 16.673 5.04442 16.673 5.26075C16.6733 5.40447 16.6442 5.54683 16.5872 5.67967C16.5302 5.81251 16.4466 5.93321 16.341 6.03484C16.2355 6.13646 16.1102 6.21702 15.9722 6.27187C15.8343 6.32673 15.6864 6.35481 15.5372 6.3545Z" fill="black"/>
<path d="M10.6155 7.0832C11.2146 7.0832 11.8002 7.25427 12.2983 7.57477C12.7964 7.89527 13.1846 8.35082 13.4139 8.88379C13.6431 9.41677 13.7031 10.0032 13.5862 10.569C13.4694 11.1348 13.1809 11.6546 12.7573 12.0625C12.3337 12.4704 11.794 12.7482 11.2064 12.8608C10.6189 12.9733 10.0098 12.9155 9.45636 12.6948C8.90289 12.474 8.42984 12.1002 8.09701 11.6205C7.76419 11.1408 7.58654 10.5769 7.58654 10C7.5874 9.22667 7.9068 8.48525 8.47465 7.93843C9.0425 7.3916 9.81243 7.08403 10.6155 7.0832ZM10.6155 5.625C9.71693 5.625 8.83854 5.88159 8.09141 6.36232C7.34428 6.84305 6.76197 7.52633 6.4181 8.32576C6.07423 9.12519 5.98426 10.0049 6.15956 10.8535C6.33487 11.7022 6.76757 12.4817 7.40295 13.0936C8.03833 13.7054 8.84785 14.1221 9.72915 14.2909C10.6105 14.4597 11.5239 14.3731 12.3541 14.042C13.1843 13.7108 13.8938 13.1501 14.393 12.4306C14.8923 11.7112 15.1587 10.8653 15.1587 10C15.1587 8.83968 14.6801 7.72688 13.828 6.90641C12.976 6.08594 11.8204 5.625 10.6155 5.625Z" fill="black"/>
</svg>
