<svg width="22" height="18" viewBox="0 0 22 18" fill="none" xmlns="http://www.w3.org/2000/svg">
<path fill-rule="evenodd" clip-rule="evenodd" d="M16.522 16.9826C16.8007 17.1726 17.1598 17.2201 17.48 17.1035C17.8002 16.986 18.0356 16.7226 18.1065 16.4035C18.8585 13.0001 20.6827 4.38596 21.3673 1.29012C21.4192 1.05679 21.3326 0.81429 21.1423 0.658457C20.9519 0.502624 20.6879 0.457624 20.4526 0.54179C16.824 1.83512 5.64939 5.87262 1.08193 7.50012C0.792026 7.60345 0.603374 7.87179 0.612893 8.16595C0.623278 8.46095 0.829238 8.71679 1.12606 8.80262C3.17441 9.39262 5.86314 10.2135 5.86314 10.2135C5.86314 10.2135 7.11967 13.8676 7.77476 15.726C7.85697 15.9593 8.04649 16.1426 8.29659 16.206C8.54581 16.2685 8.81235 16.2026 8.99841 16.0335C10.0507 15.0768 11.6776 13.5976 11.6776 13.5976C11.6776 13.5976 14.7688 15.7801 16.522 16.9826ZM6.99419 9.75179L8.44716 14.3668L8.76995 11.4443C8.76995 11.4443 14.3837 6.56845 17.5838 3.78929C17.6773 3.70762 17.6903 3.57096 17.6124 3.47512C17.5354 3.37929 17.3934 3.35679 17.287 3.42179C13.578 5.70262 6.99419 9.75179 6.99419 9.75179Z" fill="black"/>
</svg>
