<svg width="21" height="20" viewBox="0 0 21 20" fill="none" xmlns="http://www.w3.org/2000/svg">
<g clip-path="url(#clip0)">
<path fill-rule="evenodd" clip-rule="evenodd" d="M19.6616 5.15625C19.806 4.71563 19.6616 4.39531 19.0227 4.39531H16.8983C16.3624 4.39531 16.115 4.67578 15.9706 4.97578C15.9706 4.97578 14.8778 7.53828 13.3517 9.19961C12.8568 9.68008 12.6301 9.84024 12.362 9.84024C12.2175 9.84024 12.0318 9.68008 12.0318 9.23984V5.13555C12.0318 4.61523 11.8671 4.375 11.4131 4.375H8.07225C7.74205 4.375 7.53598 4.61523 7.53598 4.85547C7.53598 5.35586 8.299 5.47617 8.38135 6.87734V9.92188C8.38135 10.5824 8.25966 10.7031 7.9895 10.7031C7.26785 10.7031 5.51506 8.1207 4.46362 5.17813C4.25918 4.59531 4.05148 4.375 3.51522 4.375H1.37057C0.75196 4.375 0.648926 4.65508 0.648926 4.95547C0.648926 5.49609 1.37057 8.21836 4.01011 11.8215C5.76291 14.2824 8.25803 15.6051 10.5057 15.6051C11.8671 15.6051 12.0318 15.3047 12.0318 14.8043V12.9426C12.0318 12.3422 12.1555 12.2422 12.5887 12.2422C12.8978 12.2422 13.4548 12.402 14.7127 13.5832C16.156 14.9844 16.4034 15.625 17.2078 15.625H19.3318C19.9504 15.625 20.2392 15.3246 20.0741 14.7441C19.8887 14.1637 19.1874 13.323 18.2799 12.3223C17.785 11.7621 17.0427 11.1414 16.8159 10.841C16.5068 10.4406 16.5892 10.2805 16.8159 9.92031C16.7953 9.92031 19.3938 6.35703 19.6616 5.15469" fill="black"/>
</g>
<defs>
<clipPath id="clip0">
<rect width="20.7691" height="20" fill="white"/>
</clipPath>
</defs>
</svg>
