<svg width="131" height="118" viewBox="0 0 131 118" fill="none" xmlns="http://www.w3.org/2000/svg">
<path d="M98.6406 19.6562C103.453 19.6562 108.531 19.8281 113.875 20.1719C119.25 20.5156 124.891 21.1875 130.797 22.1875V34.0938C128.172 33.3438 125.516 32.7344 122.828 32.2656C120.141 31.7656 117.438 31.375 114.719 31.0938C112.031 30.8125 109.344 30.6094 106.656 30.4844C103.969 30.3594 101.297 30.2812 98.6406 30.25C97.3594 30.25 95.9375 30.2812 94.375 30.3438C92.8438 30.375 91.1875 30.4375 89.4062 30.5312C87.6562 30.625 85.8281 30.7656 83.9219 30.9531C82.0156 31.1406 80.0781 31.375 78.1094 31.6562V48.7188H119.078V60.25H78.1094V91H66.5781V22.1875C72.4219 21.1875 78.0312 20.5156 83.4062 20.1719C88.8125 19.8281 93.8906 19.6562 98.6406 19.6562Z" fill="#3E3E3E"/>
<path d="M32.8594 19.6562C28.0469 19.6562 22.9688 19.8281 17.625 20.1719C12.25 20.5156 6.60938 21.1875 0.703125 22.1875V34.0938C3.32812 33.3438 5.98438 32.7344 8.67188 32.2656C11.3594 31.7656 14.0625 31.375 16.7812 31.0938C19.4687 30.8125 22.1563 30.6094 24.8438 30.4844C27.5312 30.3594 30.2031 30.2813 32.8594 30.25C34.1406 30.25 35.5625 30.2813 37.125 30.3438C38.6562 30.375 40.3125 30.4375 42.0938 30.5312C43.8438 30.625 45.6719 30.7656 47.5781 30.9531C49.4844 31.1406 51.4219 31.375 53.3906 31.6562V48.7188H12.4219V60.25H53.3906V91H64.9219V22.1875C59.0781 21.1875 53.4688 20.5156 48.0938 20.1719C42.6875 19.8281 37.6094 19.6562 32.8594 19.6562Z" fill="#3E3E3E"/>
<path d="M22.2539 102.605C23.1562 102.605 24.0059 102.685 24.8027 102.843C25.5996 103.001 26.2969 103.221 26.8945 103.502C27.4922 103.783 27.9639 104.123 28.3096 104.521C28.6553 104.914 28.8281 105.348 28.8281 105.822V112.818C28.8281 113.293 28.6553 113.729 28.3096 114.128C27.9639 114.521 27.4922 114.857 26.8945 115.139C26.2969 115.42 25.5996 115.64 24.8027 115.798C24.0059 115.956 23.1562 116.035 22.2539 116.035C21.75 116.035 21.2344 116.018 20.707 115.982C20.1797 115.941 19.667 115.892 19.1689 115.833C18.6768 115.769 18.2139 115.695 17.7803 115.613C17.3467 115.531 16.9746 115.443 16.6641 115.35V103.291C16.9746 103.197 17.3467 103.109 17.7803 103.027C18.2139 102.945 18.6768 102.875 19.1689 102.816C19.667 102.752 20.1797 102.702 20.707 102.667C21.2344 102.626 21.75 102.605 22.2539 102.605ZM22.2891 104.592C21.7559 104.592 21.293 104.609 20.9004 104.645C20.5078 104.674 20.1709 104.715 19.8896 104.768C19.6084 104.814 19.374 104.867 19.1865 104.926C19.0049 104.979 18.8555 105.025 18.7383 105.066V113.574C18.8555 113.621 19.0049 113.671 19.1865 113.724C19.374 113.776 19.6084 113.829 19.8896 113.882C20.1709 113.929 20.5078 113.97 20.9004 114.005C21.293 114.034 21.7559 114.049 22.2891 114.049C22.9453 114.049 23.5342 113.996 24.0557 113.891C24.583 113.785 25.0254 113.645 25.3828 113.469C25.7461 113.293 26.0244 113.091 26.2178 112.862C26.4111 112.628 26.5078 112.385 26.5078 112.133V106.508C26.5078 106.256 26.4111 106.016 26.2178 105.787C26.0244 105.553 25.7461 105.348 25.3828 105.172C25.0254 104.996 24.583 104.855 24.0557 104.75C23.5342 104.645 22.9453 104.592 22.2891 104.592ZM37.1074 105.822C37.5996 105.822 38.0889 105.846 38.5752 105.893C39.0674 105.939 39.5391 106.016 39.9902 106.121C40.4414 106.227 40.8633 106.358 41.2559 106.517C41.6484 106.675 41.9883 106.865 42.2754 107.088C42.5684 107.311 42.7969 107.568 42.9609 107.861C43.125 108.148 43.207 108.471 43.207 108.828V113.381C43.207 113.697 43.125 113.987 42.9609 114.251C42.7969 114.515 42.5684 114.752 42.2754 114.963C41.9883 115.168 41.6484 115.347 41.2559 115.499C40.8633 115.651 40.4414 115.777 39.9902 115.877C39.5391 115.977 39.0674 116.05 38.5752 116.097C38.083 116.149 37.5938 116.176 37.1074 116.176C36.6211 116.176 36.1318 116.149 35.6396 116.097C35.1533 116.05 34.6846 115.977 34.2334 115.877C33.7822 115.777 33.3604 115.651 32.9678 115.499C32.5811 115.347 32.2412 115.168 31.9482 114.963C31.6611 114.752 31.4355 114.518 31.2715 114.26C31.1074 113.996 31.0254 113.703 31.0254 113.381V108.828C31.0254 108.471 31.1074 108.148 31.2715 107.861C31.4355 107.568 31.6611 107.311 31.9482 107.088C32.2412 106.865 32.5811 106.675 32.9678 106.517C33.3604 106.358 33.7822 106.227 34.2334 106.121C34.6846 106.016 35.1533 105.939 35.6396 105.893C36.1318 105.846 36.6211 105.822 37.1074 105.822ZM33.2578 112.818C33.2578 113.088 33.3691 113.322 33.5918 113.521C33.8203 113.715 34.1162 113.879 34.4795 114.014C34.8428 114.143 35.2529 114.239 35.71 114.304C36.1729 114.368 36.6387 114.4 37.1074 114.4C37.5996 114.4 38.0742 114.365 38.5312 114.295C38.9941 114.225 39.4043 114.125 39.7617 113.996C40.1191 113.861 40.4033 113.697 40.6143 113.504C40.8311 113.305 40.9395 113.076 40.9395 112.818V109.162C40.9395 108.91 40.8311 108.685 40.6143 108.485C40.4033 108.28 40.1191 108.11 39.7617 107.976C39.4043 107.835 38.9941 107.729 38.5312 107.659C38.0742 107.583 37.5996 107.545 37.1074 107.545C36.6387 107.545 36.1729 107.58 35.71 107.65C35.2529 107.715 34.8428 107.814 34.4795 107.949C34.1162 108.084 33.8203 108.254 33.5918 108.459C33.3691 108.658 33.2578 108.893 33.2578 109.162V112.818ZM47.3906 112.818C47.3906 113.088 47.4873 113.313 47.6807 113.495C47.8799 113.677 48.1436 113.826 48.4717 113.943C48.8057 114.055 49.1895 114.137 49.623 114.189C50.0566 114.236 50.5078 114.26 50.9766 114.26C51.4688 114.26 51.9316 114.233 52.3652 114.181C52.7988 114.122 53.1768 114.037 53.499 113.926C53.8213 113.809 54.0762 113.659 54.2637 113.478C54.4512 113.296 54.5449 113.076 54.5449 112.818V105.98L56.8828 106.156V113.381C56.8828 113.697 56.8037 113.987 56.6455 114.251C56.4932 114.515 56.2793 114.752 56.0039 114.963C55.7285 115.168 55.4033 115.347 55.0283 115.499C54.6533 115.651 54.2461 115.777 53.8066 115.877C53.373 115.977 52.9131 116.05 52.4268 116.097C51.9463 116.149 51.4629 116.176 50.9766 116.176C50.4844 116.176 49.998 116.149 49.5176 116.097C49.0371 116.05 48.5771 115.977 48.1377 115.877C47.7041 115.777 47.2998 115.651 46.9248 115.499C46.5498 115.347 46.2246 115.168 45.9492 114.963C45.6738 114.752 45.457 114.518 45.2988 114.26C45.1465 113.996 45.0703 113.703 45.0703 113.381V106.156L47.3906 105.98V112.818ZM65.25 105.98C66.1523 105.98 66.958 106.045 67.667 106.174C68.3818 106.297 68.9824 106.49 69.4688 106.754C69.9609 107.018 70.3359 107.352 70.5938 107.756C70.8516 108.16 70.9805 108.641 70.9805 109.197V112.783C70.9805 113.34 70.8516 113.82 70.5938 114.225C70.3359 114.629 69.9609 114.963 69.4688 115.227C68.9824 115.49 68.3818 115.687 67.667 115.815C66.958 115.938 66.1523 116 65.25 116C64.7461 116 64.2305 115.982 63.7031 115.947C63.1758 115.906 62.666 115.856 62.1738 115.798C61.6816 115.733 61.2188 115.66 60.7852 115.578C60.3516 115.496 59.9824 115.408 59.6777 115.314V102.623H61.9805V106.613C62.502 106.426 63.0469 106.273 63.6152 106.156C64.1895 106.039 64.7344 105.98 65.25 105.98ZM64.6172 107.615C64.3125 107.615 64.0342 107.636 63.7822 107.677C63.5303 107.718 63.2959 107.771 63.0791 107.835C62.8682 107.899 62.6719 107.973 62.4902 108.055C62.3086 108.131 62.1387 108.207 61.9805 108.283V113.82C62.1387 113.873 62.3203 113.926 62.5254 113.979C62.7305 114.025 62.9473 114.069 63.1758 114.11C63.4102 114.151 63.6475 114.184 63.8877 114.207C64.1338 114.23 64.377 114.242 64.6172 114.242C64.9805 114.242 65.335 114.239 65.6807 114.233C66.0264 114.222 66.3486 114.195 66.6475 114.154C66.9463 114.113 67.2188 114.052 67.4648 113.97C67.7168 113.888 67.9307 113.773 68.1064 113.627C68.2881 113.475 68.4287 113.29 68.5283 113.073C68.6279 112.851 68.6777 112.578 68.6777 112.256V109.672C68.6777 109.209 68.5693 108.843 68.3525 108.573C68.1357 108.298 67.8428 108.09 67.4736 107.949C67.1045 107.809 66.6738 107.718 66.1816 107.677C65.6895 107.636 65.168 107.615 64.6172 107.615ZM75.8848 116H73.8809V102.799H75.8848V116ZM85.166 105.98C85.4648 105.98 85.8252 105.995 86.2471 106.024C86.6689 106.054 87.1055 106.106 87.5566 106.183C88.0137 106.253 88.4648 106.355 88.9102 106.49C89.3555 106.619 89.7539 106.786 90.1055 106.991C90.4629 107.196 90.75 107.445 90.9668 107.738C91.1895 108.025 91.3008 108.365 91.3008 108.758V111.729H81.2285V113.979C81.9375 114.078 82.6201 114.148 83.2764 114.189C83.9326 114.225 84.5625 114.242 85.166 114.242C86.0859 114.242 86.918 114.207 87.6621 114.137C88.4121 114.066 89.0596 113.987 89.6045 113.899C90.2314 113.8 90.7969 113.686 91.3008 113.557V115.508C90.1875 115.684 89.1123 115.81 88.0752 115.886C87.0439 115.962 86.0742 116 85.166 116C84.252 116 83.4229 115.977 82.6787 115.93C81.9346 115.877 81.2959 115.818 80.7627 115.754C80.1416 115.684 79.582 115.602 79.084 115.508V108.758C79.084 108.365 79.1807 108.025 79.374 107.738C79.5674 107.445 79.8252 107.196 80.1475 106.991C80.4697 106.786 80.8389 106.619 81.2549 106.49C81.6768 106.355 82.1133 106.253 82.5645 106.183C83.0156 106.106 83.4639 106.054 83.9092 106.024C84.3604 105.995 84.7793 105.98 85.166 105.98ZM81.2285 110.322H89.1211V109.303C89.1211 109.062 89.0625 108.857 88.9453 108.688C88.8281 108.512 88.6699 108.365 88.4707 108.248C88.2773 108.131 88.0488 108.037 87.7852 107.967C87.5273 107.891 87.2578 107.835 86.9766 107.8C86.6953 107.759 86.4111 107.732 86.124 107.721C85.8428 107.709 85.5762 107.703 85.3242 107.703C85.0605 107.703 84.7764 107.709 84.4717 107.721C84.1729 107.732 83.8711 107.759 83.5664 107.8C83.2617 107.841 82.9688 107.899 82.6875 107.976C82.4062 108.046 82.1572 108.143 81.9404 108.266C81.7236 108.383 81.5508 108.529 81.4219 108.705C81.293 108.875 81.2285 109.08 81.2285 109.32V110.322ZM99.8262 102.623C100.729 102.623 101.681 102.655 102.683 102.72C103.69 102.784 104.748 102.91 105.855 103.098V105.33C105.363 105.189 104.865 105.075 104.361 104.987C103.857 104.894 103.351 104.82 102.841 104.768C102.337 104.715 101.833 104.677 101.329 104.653C100.825 104.63 100.324 104.615 99.8262 104.609C99.5859 104.609 99.3193 104.615 99.0264 104.627C98.7393 104.633 98.4287 104.645 98.0947 104.662C97.7666 104.68 97.4238 104.706 97.0664 104.741C96.709 104.776 96.3457 104.82 95.9766 104.873V108.072H103.658V110.234H95.9766V116H93.8145V103.098C94.9102 102.91 95.9619 102.784 96.9697 102.72C97.9834 102.655 98.9355 102.623 99.8262 102.623ZM113.379 102.623C114.281 102.623 115.233 102.655 116.235 102.72C117.243 102.784 118.301 102.91 119.408 103.098V105.33C118.916 105.189 118.418 105.075 117.914 104.987C117.41 104.894 116.903 104.82 116.394 104.768C115.89 104.715 115.386 104.677 114.882 104.653C114.378 104.63 113.877 104.615 113.379 104.609C113.139 104.609 112.872 104.615 112.579 104.627C112.292 104.633 111.981 104.645 111.647 104.662C111.319 104.68 110.977 104.706 110.619 104.741C110.262 104.776 109.898 104.82 109.529 104.873V108.072H117.211V110.234H109.529V116H107.367V103.098C108.463 102.91 109.515 102.784 110.522 102.72C111.536 102.655 112.488 102.623 113.379 102.623Z" fill="#3E3E3E"/>
</svg>
