<svg width="56" height="51" viewBox="0 0 56 51" fill="none" xmlns="http://www.w3.org/2000/svg">
<g clip-path="url(#clip0)">
<path d="M39.7997 0H15.8836C13.9994 0 12.467 1.40912 12.467 3.14186V47.1279C12.467 48.8606 13.9994 50.2698 15.8836 50.2698H39.7997C41.684 50.2698 43.2163 48.8606 43.2163 47.1279V3.14186C43.2163 1.40912 41.684 0 39.7997 0ZM39.7997 47.1279L15.8836 47.1295V3.14186H39.7997V47.1279Z" fill="black" stroke="white"/>
<path d="M19.8003 8.92555V6.78369H35.8832V8.92555H19.8003Z" fill="black" stroke="white"/>
<path d="M19.8003 15.2092V13.0674H35.8832V15.2092H19.8003Z" fill="black" stroke="white"/>
<path d="M19.8003 21.4931V19.3512H35.8832V21.4931H19.8003Z" fill="black" stroke="white"/>
<path d="M33.4666 27.7767V25.6349H35.8831V27.7767H33.4666Z" fill="black" stroke="white"/>
<path d="M26.6335 27.7767V25.6349H29.0501V27.7767H26.6335Z" fill="black" stroke="white"/>
<path d="M27.6709 38.2051C25.9567 38.2051 24.5618 39.4879 24.5618 41.0642C24.5618 42.6405 25.9567 43.9233 27.6709 43.9233C29.385 43.9233 30.78 42.6405 30.78 41.0642C30.78 39.4879 29.385 38.2051 27.6709 38.2051ZM27.6709 42.0172C27.0998 42.0172 26.6345 41.5893 26.6345 41.0642C26.6345 40.539 27.0998 40.1111 27.6709 40.1111C28.2419 40.1111 28.7072 40.539 28.7072 41.0642C28.7072 41.5893 28.2419 42.0172 27.6709 42.0172Z" fill="black"/>
<path d="M27.6709 38.2051C25.9567 38.2051 24.5618 39.4879 24.5618 41.0642C24.5618 42.6405 25.9567 43.9233 27.6709 43.9233C29.385 43.9233 30.78 42.6405 30.78 41.0642C30.78 39.4879 29.385 38.2051 27.6709 38.2051ZM27.6709 42.0172C27.0998 42.0172 26.6345 41.5893 26.6345 41.0642C26.6345 40.539 27.0998 40.1111 27.6709 40.1111C28.2419 40.1111 28.7072 40.539 28.7072 41.0642C28.7072 41.5893 28.2419 42.0172 27.6709 42.0172Z" stroke="black"/>
</g>
<defs>
<clipPath id="clip0">
<rect x="0.509033" width="54.6654" height="50.2698" fill="white"/>
</clipPath>
</defs>
</svg>
