<svg width="68" height="50" viewBox="0 0 68 50" fill="none" xmlns="http://www.w3.org/2000/svg">
<path d="M60.6042 5.15103C60.5822 5.07247 60.5303 5.0002 60.4547 4.94271C60.379 4.88522 60.2828 4.84491 60.1772 4.82652C53.1416 3.55338 36.8892 8.08979 28.0746 14.6068C26.5037 15.7595 25.0712 17.0112 23.7935 18.3477C21.0766 18.1658 18.3596 18.319 16.0463 19.0656C9.51403 21.1907 7.61347 26.7409 7.08302 29.1235C7.05428 29.254 7.06655 29.3877 7.11889 29.5142C7.17123 29.6407 7.26223 29.7565 7.38483 29.8528C7.50744 29.9491 7.65836 30.0232 7.82589 30.0693C7.99343 30.1155 8.17308 30.1325 8.35092 30.119L18.8396 29.2671C18.8469 29.8524 18.8944 30.4371 18.9819 31.0188C19.0367 31.4209 19.2791 31.7963 19.6676 32.0804L23.7288 35.0852C24.1131 35.3729 24.621 35.5523 25.1649 35.5926C25.9465 35.6571 26.7319 35.6922 27.5183 35.6979L26.3681 43.4516C26.3502 43.583 26.3733 43.7157 26.4357 43.8395C26.4981 43.9632 26.5982 44.0747 26.7281 44.1653C26.858 44.2559 27.0144 44.3231 27.185 44.3619C27.3557 44.4006 27.5361 44.4098 27.7124 44.3888C30.9339 44.0059 38.4507 42.5997 41.3061 37.7675C42.3153 36.054 42.5223 34.0543 42.2894 32.0536C44.101 31.1091 45.7976 30.0492 47.3597 28.8861C56.2066 22.3768 62.299 10.616 60.6042 5.15103ZM39.4961 20.4537C38.7234 19.882 38.1971 19.1537 37.9838 18.3608C37.7706 17.5679 37.8799 16.746 38.298 15.9991C38.7161 15.2521 39.4242 14.6137 40.3327 14.1645C41.2412 13.7153 42.3094 13.4756 43.4021 13.4756C44.4947 13.4756 45.5629 13.7153 46.4714 14.1645C47.3799 14.6137 48.088 15.2521 48.5061 15.9991C48.9242 16.746 49.0335 17.5679 48.8203 18.3608C48.607 19.1537 48.0807 19.882 47.308 20.4537C46.7954 20.8337 46.1866 21.1352 45.5164 21.3409C44.8462 21.5466 44.1277 21.6525 43.4021 21.6525C42.6764 21.6525 41.9579 21.5466 41.2877 21.3409C40.6175 21.1352 40.0087 20.8337 39.4961 20.4537Z" stroke="black" stroke-width="2" stroke-linecap="round" stroke-linejoin="round"/>
<path d="M15.041 33.8921C13.7513 34.0092 12.5514 34.4418 11.6319 35.1212C9.35229 36.8136 9.13623 43.0817 9.13623 43.0817C9.13623 43.0817 17.6131 42.9218 19.894 41.2333C20.8159 40.554 21.4016 39.6648 21.5565 38.709" stroke="black" stroke-width="2" stroke-linecap="round" stroke-linejoin="round"/>
</svg>
