<svg width="62" height="50" viewBox="0 0 62 50" fill="none" xmlns="http://www.w3.org/2000/svg">
<path d="M54.5483 1.5625H7.41765C6.16813 1.56374 4.97021 1.97569 4.08667 2.70798C3.20312 3.44028 2.70609 4.43313 2.70459 5.46875V35.1562C2.70609 36.1919 3.20312 37.1847 4.08667 37.917C4.97021 38.6493 6.16813 39.0613 7.41765 39.0625H23.0245L20.9036 43.75H18.729C17.979 43.75 17.2597 43.9969 16.7294 44.4365C16.1991 44.876 15.9012 45.4721 15.9012 46.0938V47.6562C15.9012 47.8634 16.0005 48.0622 16.1772 48.2087C16.354 48.3552 16.5938 48.4375 16.8438 48.4375H45.1221C45.3721 48.4375 45.6119 48.3552 45.7887 48.2087C45.9654 48.0622 46.0648 47.8634 46.0648 47.6562V46.0938C46.0648 45.4721 45.7668 44.876 45.2365 44.4365C44.7062 43.9969 43.9869 43.75 43.2369 43.75H41.0623L38.9414 39.0625H54.5483C55.7978 39.0613 56.9957 38.6493 57.8792 37.917C58.7628 37.1847 59.2598 36.1919 59.2613 35.1562V5.46875C59.2598 4.43313 58.7628 3.44028 57.8792 2.70798C56.9957 1.97569 55.7978 1.56374 54.5483 1.5625ZM7.41765 3.125H54.5483C55.2983 3.125 56.0175 3.37193 56.5478 3.81147C57.0782 4.25101 57.3761 4.84715 57.3761 5.46875V29.6875H4.58981V5.46875C4.58981 4.84715 4.88775 4.25101 5.41807 3.81147C5.94839 3.37193 6.66766 3.125 7.41765 3.125ZM44.1795 46.0938V46.875H17.7864V46.0938C17.7864 45.8866 17.8857 45.6878 18.0625 45.5413C18.2392 45.3948 18.479 45.3125 18.729 45.3125H43.2369C43.4869 45.3125 43.7267 45.3948 43.9034 45.5413C44.0802 45.6878 44.1795 45.8866 44.1795 46.0938ZM39.0489 43.75H22.917L25.0379 39.0625H36.928L39.0489 43.75ZM54.5483 37.5H7.41765C6.66766 37.5 5.94839 37.2531 5.41807 36.8135C4.88775 36.374 4.58981 35.7779 4.58981 35.1562V31.25H57.3761V35.1562C57.3761 35.7779 57.0782 36.374 56.5478 36.8135C56.0175 37.2531 55.2983 37.5 54.5483 37.5Z" fill="black"/>
<path d="M30.9829 32.0312C30.4236 32.0312 29.8768 32.1687 29.4118 32.4262C28.9468 32.6838 28.5843 33.0498 28.3703 33.4781C28.1563 33.9064 28.1003 34.3776 28.2094 34.8322C28.3185 35.2869 28.5878 35.7045 28.9833 36.0323C29.3788 36.3601 29.8826 36.5833 30.4312 36.6737C30.9797 36.7641 31.5483 36.7177 32.065 36.5403C32.5818 36.3629 33.0234 36.0625 33.3341 35.6771C33.6449 35.2917 33.8107 34.8385 33.8107 34.375C33.8107 33.7534 33.5128 33.1573 32.9825 32.7177C32.4521 32.2782 31.7329 32.0312 30.9829 32.0312ZM30.9829 35.1562C30.7964 35.1562 30.6142 35.1104 30.4592 35.0246C30.3042 34.9387 30.1834 34.8167 30.112 34.674C30.0407 34.5312 30.022 34.3741 30.0584 34.2226C30.0947 34.071 30.1845 33.9318 30.3163 33.8226C30.4482 33.7133 30.6161 33.6389 30.799 33.6088C30.9818 33.5786 31.1714 33.5941 31.3436 33.6532C31.5158 33.7124 31.6631 33.8125 31.7666 33.941C31.8702 34.0694 31.9255 34.2205 31.9255 34.375C31.9255 34.5822 31.8262 34.7809 31.6494 34.9274C31.4726 35.0739 31.2329 35.1562 30.9829 35.1562Z" fill="black"/>
<path d="M24.724 22.9688L17.1831 17.5L24.724 12.0312" stroke="black" stroke-linecap="round" stroke-linejoin="round"/>
<path d="M36.0354 22.9688L43.5763 17.5L36.0354 12.0312" stroke="black" stroke-linecap="round" stroke-linejoin="round"/>
<path d="M33.2074 9.6875L27.5518 25.3125" stroke="black" stroke-linecap="round" stroke-linejoin="round"/>
</svg>
