<svg width="50" height="50" viewBox="0 0 50 50" fill="none" xmlns="http://www.w3.org/2000/svg">
<path d="M25 46.875C26.7259 46.875 28.125 45.4759 28.125 43.75C28.125 42.0241 26.7259 40.625 25 40.625C23.2741 40.625 21.875 42.0241 21.875 43.75C21.875 45.4759 23.2741 46.875 25 46.875Z" stroke="black" stroke-width="2" stroke-miterlimit="10"/>
<path d="M25 34.375C26.7259 34.375 28.125 32.9759 28.125 31.25C28.125 29.5241 26.7259 28.125 25 28.125C23.2741 28.125 21.875 29.5241 21.875 31.25C21.875 32.9759 23.2741 34.375 25 34.375Z" stroke="black" stroke-width="2" stroke-miterlimit="10"/>
<path d="M28.125 18.75C28.125 19.3681 27.9417 19.9723 27.5984 20.4862C27.255 21.0001 26.7669 21.4006 26.1959 21.6371C25.6249 21.8736 24.9965 21.9355 24.3904 21.815C23.7842 21.6944 23.2273 21.3967 22.7903 20.9597C22.3533 20.5227 22.0556 19.9658 21.935 19.3597C21.8145 18.7535 21.8764 18.1251 22.1129 17.5541C22.3494 16.9831 22.7499 16.495 23.2638 16.1517C23.7778 15.8083 24.3819 15.625 25 15.625C25.8288 15.625 26.6237 15.9542 27.2097 16.5403C27.7958 17.1263 28.125 17.9212 28.125 18.75Z" stroke="black" stroke-width="2" stroke-miterlimit="10"/>
<path d="M25 9.375C26.7259 9.375 28.125 7.97589 28.125 6.25C28.125 4.52411 26.7259 3.125 25 3.125C23.2741 3.125 21.875 4.52411 21.875 6.25C21.875 7.97589 23.2741 9.375 25 9.375Z" stroke="black" stroke-width="2" stroke-miterlimit="10"/>
<path d="M37.5 34.375C39.2259 34.375 40.625 32.9759 40.625 31.25C40.625 29.5241 39.2259 28.125 37.5 28.125C35.7741 28.125 34.375 29.5241 34.375 31.25C34.375 32.9759 35.7741 34.375 37.5 34.375Z" stroke="black" stroke-width="2" stroke-miterlimit="10"/>
<path d="M37.5 21.875C39.2259 21.875 40.625 20.4759 40.625 18.75C40.625 17.0241 39.2259 15.625 37.5 15.625C35.7741 15.625 34.375 17.0241 34.375 18.75C34.375 20.4759 35.7741 21.875 37.5 21.875Z" stroke="black" stroke-width="2" stroke-miterlimit="10"/>
<path d="M37.5 9.375C39.2259 9.375 40.625 7.97589 40.625 6.25C40.625 4.52411 39.2259 3.125 37.5 3.125C35.7741 3.125 34.375 4.52411 34.375 6.25C34.375 7.97589 35.7741 9.375 37.5 9.375Z" stroke="black" stroke-width="2" stroke-miterlimit="10"/>
<path d="M12.5 34.375C14.2259 34.375 15.625 32.9759 15.625 31.25C15.625 29.5241 14.2259 28.125 12.5 28.125C10.7741 28.125 9.375 29.5241 9.375 31.25C9.375 32.9759 10.7741 34.375 12.5 34.375Z" stroke="black" stroke-width="2" stroke-miterlimit="10"/>
<path d="M12.5 21.875C14.2259 21.875 15.625 20.4759 15.625 18.75C15.625 17.0241 14.2259 15.625 12.5 15.625C10.7741 15.625 9.375 17.0241 9.375 18.75C9.375 20.4759 10.7741 21.875 12.5 21.875Z" stroke="black" stroke-width="2" stroke-miterlimit="10"/>
<path d="M12.5 9.375C14.2259 9.375 15.625 7.97589 15.625 6.25C15.625 4.52411 14.2259 3.125 12.5 3.125C10.7741 3.125 9.375 4.52411 9.375 6.25C9.375 7.97589 10.7741 9.375 12.5 9.375Z" stroke="black" stroke-width="2" stroke-miterlimit="10"/>
</svg>
