<svg width="43" height="43" viewBox="0 0 43 43" fill="none" xmlns="http://www.w3.org/2000/svg">
<path d="M40.4893 2.15806C39.7477 1.41656 38.742 1 37.6934 1C36.6447 1 35.639 1.41656 34.8975 2.15806L14.2812 25.118C16.5352 25.577 18.7852 27.7831 19.0918 29.9286L40.4893 7.74985C41.2308 7.00832 41.6473 6.00261 41.6473 4.95395C41.6473 3.9053 41.2308 2.89959 40.4893 2.15806V2.15806Z" stroke="black" stroke-width="2" stroke-linecap="round" stroke-linejoin="round"/>
<path d="M9.78906 29.1472C6.87109 29.1472 4.51562 31.5398 4.51562 34.5046C4.51562 36.8435 2.47656 38.0759 1 38.0759C2.61719 40.2546 5.37695 41.6472 8.03125 41.6472C11.916 41.6472 15.0625 38.4509 15.0625 34.5046C15.0625 31.5398 12.707 29.1472 9.78906 29.1472Z" stroke="black" stroke-width="2" stroke-linecap="round" stroke-linejoin="round"/>
</svg>
