<svg width="50" height="50" viewBox="0 0 50 50" fill="none" xmlns="http://www.w3.org/2000/svg">
<path d="M45.0986 5.25505C45.082 5.1749 45.0428 5.10117 44.9857 5.04252C44.9286 4.98387 44.856 4.94275 44.7763 4.92399C39.4658 3.62516 27.1982 8.25309 20.5449 14.9015C19.3591 16.0776 18.2779 17.3545 17.3134 18.7179C15.2627 18.5324 13.2119 18.6886 11.4658 19.4504C6.53511 21.6183 5.10054 27.2804 4.70015 29.7111C4.67846 29.8443 4.68772 29.9807 4.72723 30.1097C4.76674 30.2387 4.83543 30.3569 4.92797 30.4552C5.02051 30.5534 5.13443 30.6289 5.26088 30.676C5.38734 30.7231 5.52294 30.7405 5.65718 30.7267L13.5742 29.8576C13.5797 30.4547 13.6155 31.0512 13.6816 31.6447C13.7229 32.0549 13.9059 32.4379 14.1992 32.7277L17.2646 35.7931C17.5547 36.0866 17.938 36.2696 18.3486 36.3107C18.9385 36.3765 19.5314 36.4124 20.125 36.4181L19.2568 44.3283C19.2432 44.4624 19.2607 44.5977 19.3078 44.724C19.3549 44.8502 19.4304 44.964 19.5285 45.0564C19.6266 45.1488 19.7446 45.2174 19.8734 45.2569C20.0022 45.2965 20.1384 45.3058 20.2714 45.2843C22.7031 44.8937 28.3769 43.4592 30.5322 38.5295C31.2939 36.7814 31.4502 34.7414 31.2744 32.7004C32.6418 31.7368 33.9224 30.6555 35.1015 29.4689C41.7793 22.8283 46.3779 10.8302 45.0986 5.25505ZM29.166 20.8664C28.5827 20.2832 28.1855 19.5402 28.0245 18.7313C27.8635 17.9224 27.946 17.0839 28.2616 16.3219C28.5772 15.5599 29.1117 14.9086 29.7974 14.4504C30.4832 13.9921 31.2894 13.7475 32.1142 13.7475C32.939 13.7475 33.7452 13.9921 34.431 14.4504C35.1168 14.9086 35.6512 15.5599 35.9668 16.3219C36.2824 17.0839 36.3649 17.9224 36.2039 18.7313C36.043 19.5402 35.6457 20.2832 35.0625 20.8664C34.6756 21.2541 34.216 21.5617 33.7101 21.7715C33.2042 21.9814 32.6619 22.0894 32.1142 22.0894C31.5665 22.0894 31.0242 21.9814 30.5183 21.7715C30.0124 21.5617 29.5528 21.2541 29.166 20.8664V20.8664Z" stroke="black" stroke-width="2" stroke-linecap="round" stroke-linejoin="round"/>
<path d="M10.707 34.5757C9.73351 34.6952 8.82782 35.1365 8.13379 35.8296C6.41309 37.5562 6.25 43.9507 6.25 43.9507C6.25 43.9507 12.6484 43.7876 14.3701 42.0649C15.066 41.372 15.5081 40.4648 15.625 39.4897" stroke="black" stroke-width="2" stroke-linecap="round" stroke-linejoin="round"/>
</svg>
