<svg width="50" height="50" viewBox="0 0 50 50" fill="none" xmlns="http://www.w3.org/2000/svg">
<path d="M43.75 6.25H6.25C4.52411 6.25 3.125 7.64911 3.125 9.375V34.375C3.125 36.1009 4.52411 37.5 6.25 37.5H43.75C45.4759 37.5 46.875 36.1009 46.875 34.375V9.375C46.875 7.64911 45.4759 6.25 43.75 6.25Z" stroke="black" stroke-width="2" stroke-linejoin="round"/>
<path d="M29.6875 43.75L28.9062 37.5H21.0937L20.3125 43.75H29.6875Z" fill="black" stroke="black" stroke-width="2" stroke-linecap="round" stroke-linejoin="round"/>
<path d="M35.9375 43.75H14.0625" stroke="black" stroke-width="2" stroke-linecap="round" stroke-linejoin="round"/>
<path d="M3.125 29.6875V34.375C3.12732 35.2031 3.4573 35.9966 4.04285 36.5822C4.6284 37.1677 5.42191 37.4977 6.25 37.5H43.75C44.5781 37.4977 45.3716 37.1677 45.9571 36.5822C46.5427 35.9966 46.8727 35.2031 46.875 34.375V29.6875H3.125ZM25 35.9375C24.691 35.9375 24.3889 35.8459 24.1319 35.6742C23.875 35.5025 23.6747 35.2585 23.5564 34.9729C23.4382 34.6874 23.4072 34.3733 23.4675 34.0702C23.5278 33.7671 23.6766 33.4887 23.8951 33.2701C24.1137 33.0516 24.3921 32.9028 24.6952 32.8425C24.9983 32.7822 25.3124 32.8132 25.5979 32.9314C25.8834 33.0497 26.1275 33.25 26.2992 33.5069C26.4709 33.7639 26.5625 34.066 26.5625 34.375C26.5625 34.7894 26.3979 35.1868 26.1049 35.4799C25.8118 35.7729 25.4144 35.9375 25 35.9375Z" fill="black"/>
</svg>
