<svg width="55" height="50" viewBox="0 0 55 50" fill="none" xmlns="http://www.w3.org/2000/svg">
<g clip-path="url(#clip0)">
<path d="M46.6328 17.9795C46.0893 18.4734 45.3543 18.7506 44.5882 18.7506C43.822 18.7506 43.087 18.4734 42.5435 17.9795L40.1434 15.7832C39.6032 15.2864 39.3 14.6142 39.3 13.9136C39.3 13.2129 39.6032 12.5407 40.1434 12.0439L45.5768 7.07421C45.5873 7.06466 45.595 7.05292 45.5994 7.04001C45.6038 7.0271 45.6046 7.01341 45.6019 7.00012C45.5991 6.98684 45.5929 6.97438 45.5837 6.9638C45.5745 6.95323 45.5626 6.94487 45.5491 6.93945C42.0428 5.5664 37.4955 6.26464 34.6085 8.88671C31.8453 11.3955 31.6884 15.1631 32.7006 18.457C32.8444 18.9249 32.844 19.4201 32.6995 19.8878C32.555 20.3555 32.272 20.7776 31.8817 21.1074L13.4107 36.8066C12.9699 37.1677 12.6141 37.6072 12.3653 38.0983C12.1165 38.5894 11.9798 39.1218 11.9636 39.6629C11.9473 40.2039 12.0519 40.7423 12.2709 41.2452C12.49 41.748 12.8188 42.2047 13.2374 42.5874C13.6559 42.97 14.1554 43.2705 14.7053 43.4706C15.2551 43.6707 15.8438 43.7661 16.4354 43.7509C17.0269 43.7358 17.6089 43.6105 18.1457 43.3826C18.6825 43.1548 19.1628 42.8292 19.5574 42.4258L36.8699 25.502C37.2266 25.1508 37.6812 24.8953 38.1848 24.7628C38.6884 24.6303 39.2219 24.6259 39.7281 24.75C43.3005 25.623 47.3609 25.459 50.0921 22.998C53.0271 20.3535 53.6603 15.6797 52.2381 13.0049C52.2317 12.9931 52.2223 12.983 52.2107 12.9752C52.1991 12.9674 52.1857 12.9623 52.1715 12.9602C52.1573 12.9581 52.1428 12.9591 52.1292 12.9631C52.1155 12.9672 52.1031 12.9741 52.0929 12.9834L46.6328 17.9795Z" stroke="black" stroke-width="2" stroke-miterlimit="10" stroke-linecap="round"/>
<path d="M23.9265 27.7344C22.0602 26.0742 21.205 25.3017 20.6167 24.7763C20.3222 24.5088 20.129 24.1623 20.065 23.7872C20.0011 23.4122 20.0698 23.0282 20.2611 22.6914C20.362 22.5258 20.4878 22.3739 20.6348 22.2402L22.3089 20.7471C22.4822 20.5883 22.686 20.4602 22.91 20.3691C23.2638 20.2259 23.6564 20.183 24.0371 20.2461C24.4177 20.3091 24.769 20.4751 25.0454 20.7226C25.6273 21.2392 26.6928 22.1875 28.6125 23.8984" stroke="black" stroke-width="2" stroke-linecap="round" stroke-linejoin="round"/>
<path d="M33.8632 28.4473C38.2353 32.168 43.5385 36.5791 45.6077 38.1553C45.7624 38.2719 45.8888 38.417 45.9786 38.581C46.0684 38.745 46.1196 38.9244 46.1291 39.1076C46.1385 39.2908 46.106 39.4738 46.0335 39.6448C45.9609 39.8159 45.8501 39.9711 45.708 40.1006L42.1441 43.3594C41.9991 43.489 41.8267 43.5903 41.6375 43.6571C41.4483 43.7238 41.2462 43.7547 41.0435 43.7477C40.8409 43.7408 40.6419 43.6962 40.4587 43.6167C40.2754 43.5371 40.1118 43.4244 39.9778 43.2852C38.2129 41.4121 33.4553 36.7314 29.3789 32.8359" stroke="black" stroke-width="2" stroke-linecap="round" stroke-linejoin="round"/>
<path d="M1.86168 18.8965L5.00174 16.0898C5.0497 16.0467 5.10664 16.0128 5.16917 15.9902C5.23171 15.9675 5.29858 15.9566 5.36582 15.958C5.50137 15.9567 5.63208 16.004 5.7299 16.0898V16.0898C5.84361 16.1927 5.98146 16.2706 6.13297 16.3174C6.28449 16.3643 6.44569 16.379 6.60433 16.3604C7.01326 16.3193 7.44994 16.2041 7.73287 15.958C8.37349 15.3916 7.63251 14.2754 8.19625 13.5615C8.84085 12.7801 9.54667 12.0424 10.3081 11.3545C10.9487 10.7803 13.4941 8.58887 17.7712 7.01368C19.1391 6.50798 20.6008 6.24868 22.0761 6.25001C24.488 6.25001 26.3469 7.22657 27.0153 7.78028C27.4164 8.1294 27.7837 8.50973 28.1128 8.917C27.7914 8.80863 27.463 8.71829 27.1295 8.64649C26.4281 8.5104 25.7087 8.46894 24.9941 8.52344C23.5709 8.62989 21.8541 9.23243 20.9369 9.89063C19.4528 10.9648 18.8154 12.4023 18.7151 14.2568C18.6425 15.6357 19.0055 16.415 22.5694 19.6758C22.6912 19.8002 22.7555 19.9629 22.7487 20.1298C22.742 20.2966 22.6647 20.4546 22.5331 20.5703L20.5878 22.3281C20.4522 22.4497 20.2704 22.5186 20.0804 22.5202C19.8905 22.5219 19.7073 22.4562 19.5692 22.3369C17.2267 20.1943 15.6562 19.1055 14.7646 18.6104C13.8731 18.1152 13.1556 17.9756 12.8108 17.9414C12.1335 17.88 11.452 18.0121 10.8601 18.3193C10.7563 18.3715 10.6613 18.4373 10.5783 18.5147C10.4396 18.6457 10.3308 18.8006 10.2579 18.9703C10.1851 19.1401 10.1497 19.3214 10.1539 19.5037C10.1581 19.686 10.2017 19.8657 10.2822 20.0326C10.3627 20.1994 10.4786 20.3499 10.6231 20.4756L10.8057 20.6318C10.8531 20.674 10.8907 20.7244 10.9165 20.7801C10.9422 20.8358 10.9555 20.8956 10.9555 20.9561C10.9555 21.0165 10.9422 21.0764 10.9165 21.132C10.8907 21.1877 10.8531 21.2381 10.8057 21.2803L7.66881 24.082C7.6213 24.126 7.56456 24.1608 7.502 24.1843C7.43945 24.2078 7.37235 24.2195 7.30473 24.2188C7.16921 24.22 7.03853 24.1727 6.94065 24.0869L1.86168 19.5527C1.76976 19.4642 1.71851 19.3467 1.71851 19.2246C1.71851 19.1025 1.76976 18.985 1.86168 18.8965V18.8965Z" stroke="black" stroke-width="2" stroke-linecap="round" stroke-linejoin="round"/>
</g>
<defs>
<clipPath id="clip0">
<rect x="0.0102539" width="54.6654" height="50" fill="white"/>
</clipPath>
</defs>
</svg>
