<svg width="50" height="50" viewBox="0 0 50 50" fill="none" xmlns="http://www.w3.org/2000/svg">
<path d="M34.2324 14.5195L31.6328 10.4121C31.085 9.77344 30.334 9.375 29.4922 9.375H20.5078C19.666 9.375 18.915 9.77344 18.3672 10.4121L15.7676 14.5195C15.2197 15.1592 14.5137 15.625 13.6719 15.625H7.8125C6.9837 15.625 6.18884 15.9542 5.60279 16.5403C5.01674 17.1263 4.6875 17.9212 4.6875 18.75V37.5C4.6875 38.3288 5.01674 39.1237 5.60279 39.7097C6.18884 40.2958 6.9837 40.625 7.8125 40.625H42.1875C43.0163 40.625 43.8112 40.2958 44.3972 39.7097C44.9833 39.1237 45.3125 38.3288 45.3125 37.5V18.75C45.3125 17.9212 44.9833 17.1263 44.3972 16.5403C43.8112 15.9542 43.0163 15.625 42.1875 15.625H36.4258C35.5811 15.625 34.7803 15.1592 34.2324 14.5195Z" stroke="black" stroke-width="2" stroke-linecap="round" stroke-linejoin="round"/>
<path d="M25 34.375C29.3147 34.375 32.8125 30.8772 32.8125 26.5625C32.8125 22.2478 29.3147 18.75 25 18.75C20.6853 18.75 17.1875 22.2478 17.1875 26.5625C17.1875 30.8772 20.6853 34.375 25 34.375Z" stroke="black" stroke-width="2" stroke-miterlimit="10"/>
<path d="M12.1094 15.4297V13.2812H9.76562V15.4297" stroke="black" stroke-width="2" stroke-linecap="round" stroke-linejoin="round"/>
</svg>
