<svg width="53" height="43" viewBox="0 0 53 43" fill="none" xmlns="http://www.w3.org/2000/svg">
<path d="M50 2.16228C49.0824 1.41808 47.8378 1 46.5401 1C45.2425 1 43.9979 1.41808 43.0803 2.16228L17.5681 25.206C20.3573 25.6667 23.1416 27.8808 23.5211 30.0342L50 7.77449C50.9176 7.03025 51.4331 6.02087 51.4331 4.96839C51.4331 3.9159 50.9176 2.90652 50 2.16228V2.16228Z" stroke="black" stroke-width="2" stroke-linecap="round" stroke-linejoin="round"/>
<path d="M12.0091 29.25C8.39818 29.25 5.48333 31.6513 5.48333 34.627C5.48333 36.9744 2.96003 38.2113 1.13281 38.2113C3.13405 40.398 6.54921 41.7956 9.83385 41.7956C14.6412 41.7956 18.5349 38.5877 18.5349 34.627C18.5349 31.6513 15.62 29.25 12.0091 29.25Z" stroke="black" stroke-width="2" stroke-linecap="round" stroke-linejoin="round"/>
</svg>
