<svg width="50" height="50" viewBox="0 0 50 50" fill="none" xmlns="http://www.w3.org/2000/svg">
<g clip-path="url(#clip0)">
<path fill-rule="evenodd" clip-rule="evenodd" d="M38.3003 47.4566C38.9712 47.9316 39.8358 48.0503 40.6066 47.7586C41.3774 47.4649 41.9441 46.8066 42.1149 46.0086C43.9253 37.5003 48.317 15.9649 49.9649 8.22531C50.0899 7.64198 49.8816 7.03573 49.4233 6.64614C48.9649 6.25656 48.3295 6.14406 47.7628 6.35448C39.0274 9.58781 12.1253 19.6816 1.12951 23.7503C0.43159 24.0086 -0.0225761 24.6795 0.000340581 25.4149C0.0253406 26.1524 0.521174 26.792 1.23576 27.0066C6.16701 28.4816 12.6399 30.5336 12.6399 30.5336C12.6399 30.5336 15.6649 39.6691 17.242 44.3149C17.4399 44.8982 17.8962 45.3566 18.4983 45.5149C19.0983 45.6711 19.7399 45.5066 20.1878 45.0836C22.7212 42.692 26.6378 38.9941 26.6378 38.9941C26.6378 38.9941 34.0795 44.4503 38.3003 47.4566ZM15.3628 29.3795L18.8608 40.917L19.6378 33.6107C19.6378 33.6107 33.1524 21.4211 40.8566 14.4732C41.0816 14.2691 41.1128 13.9274 40.9253 13.6878C40.7399 13.4482 40.3983 13.392 40.142 13.5545C31.2128 19.2566 15.3628 29.3795 15.3628 29.3795Z" fill="black"/>
</g>
<defs>
<clipPath id="clip0">
<rect width="50" height="50" fill="white"/>
</clipPath>
</defs>
</svg>
