<svg width="50" height="50" viewBox="0 0 50 50" fill="none" xmlns="http://www.w3.org/2000/svg">
<path fill-rule="evenodd" clip-rule="evenodd" d="M47.334 12.8906C47.6816 11.7891 47.334 10.9883 45.7959 10.9883H40.6816C39.3916 10.9883 38.7959 11.6895 38.4482 12.4395C38.4482 12.4395 35.8174 18.8457 32.1436 22.999C30.9521 24.2002 30.4062 24.6006 29.7607 24.6006C29.4131 24.6006 28.9658 24.2002 28.9658 23.0996V12.8389C28.9658 11.5381 28.5693 10.9375 27.4766 10.9375H19.4336C18.6387 10.9375 18.1426 11.5381 18.1426 12.1387C18.1426 13.3896 19.9795 13.6904 20.1777 17.1934V24.8047C20.1777 26.4561 19.8848 26.7578 19.2344 26.7578C17.4971 26.7578 13.2773 20.3018 10.7461 12.9453C10.2539 11.4883 9.75391 10.9375 8.46289 10.9375H3.2998C1.81055 10.9375 1.5625 11.6377 1.5625 12.3887C1.5625 13.7402 3.2998 20.5459 9.6543 29.5537C13.874 35.7061 19.8809 39.0127 25.292 39.0127C28.5693 39.0127 28.9658 38.2617 28.9658 37.0107V32.3564C28.9658 30.8555 29.2637 30.6055 30.3066 30.6055C31.0508 30.6055 32.3916 31.0049 35.4199 33.958C38.8945 37.4609 39.4902 39.0625 41.4268 39.0625H46.54C48.0293 39.0625 48.7246 38.3115 48.3271 36.8604C47.8809 35.4092 46.1924 33.3076 44.0078 30.8057C42.8164 29.4053 41.0293 27.8535 40.4834 27.1025C39.7393 26.1016 39.9375 25.7012 40.4834 24.8008C40.4336 24.8008 46.6895 15.8926 47.334 12.8867" fill="black"/>
</svg>
