<svg width="15" height="15" viewBox="0 0 15 15" fill="none" xmlns="http://www.w3.org/2000/svg">
<path d="M10.2343 2.03115C10.9589 2.03332 11.6532 2.32212 12.1655 2.83448C12.6779 3.34684 12.9667 4.04114 12.9688 4.76572V10.2343C12.9667 10.9589 12.6779 11.6532 12.1655 12.1655C11.6532 12.6779 10.9589 12.9667 10.2343 12.9688H4.76572C4.04114 12.9667 3.34684 12.6779 2.83448 12.1655C2.32212 11.6532 2.03332 10.9589 2.03115 10.2343V4.76572C2.03332 4.04114 2.32212 3.34684 2.83448 2.83448C3.34684 2.32212 4.04114 2.03332 4.76572 2.03115H10.2343ZM10.2343 0.9375H4.76572C2.66016 0.9375 0.9375 2.66016 0.9375 4.76572V10.2343C0.9375 12.3398 2.66016 14.0625 4.76572 14.0625H10.2343C12.3398 14.0625 14.0625 12.3398 14.0625 10.2343V4.76572C14.0625 2.66016 12.3398 0.9375 10.2343 0.9375Z" fill="black"/>
<path d="M11.0544 4.76588C10.8922 4.76588 10.7336 4.71777 10.5987 4.62763C10.4638 4.53749 10.3587 4.40938 10.2966 4.25948C10.2345 4.10959 10.2182 3.94465 10.2499 3.78552C10.2815 3.6264 10.3597 3.48023 10.4744 3.36551C10.5891 3.25079 10.7353 3.17266 10.8944 3.14101C11.0535 3.10935 11.2185 3.1256 11.3684 3.18769C11.5183 3.24978 11.6464 3.35492 11.7365 3.48982C11.8266 3.62472 11.8748 3.78332 11.8748 3.94556C11.875 4.05335 11.8539 4.16013 11.8128 4.25976C11.7716 4.35939 11.7112 4.44991 11.635 4.52613C11.5588 4.60235 11.4683 4.66276 11.3686 4.70391C11.269 4.74505 11.1622 4.76611 11.0544 4.76588Z" fill="black"/>
<path d="M7.49999 5.3124C7.93266 5.3124 8.35561 5.4407 8.71536 5.68108C9.0751 5.92146 9.35549 6.26311 9.52107 6.66284C9.68664 7.06257 9.72996 7.50243 9.64555 7.92678C9.56114 8.35113 9.3528 8.74092 9.04686 9.04686C8.74091 9.35281 8.35112 9.56115 7.92677 9.64556C7.50242 9.72997 7.06257 9.68665 6.66284 9.52108C6.26311 9.3555 5.92145 9.07511 5.68108 8.71536C5.4407 8.35562 5.3124 7.93267 5.3124 7.5C5.31302 6.92 5.5437 6.36394 5.95382 5.95382C6.36394 5.5437 6.92 5.31302 7.49999 5.3124ZM7.49999 4.21875C6.85103 4.21875 6.21663 4.41119 5.67703 4.77174C5.13744 5.13229 4.71687 5.64475 4.46852 6.24432C4.22017 6.84389 4.15519 7.50364 4.2818 8.14014C4.40841 8.77664 4.72092 9.3613 5.17981 9.82019C5.6387 10.2791 6.22336 10.5916 6.85986 10.7182C7.49635 10.8448 8.1561 10.7798 8.75567 10.5315C9.35524 10.2831 9.8677 9.86256 10.2282 9.32297C10.5888 8.78337 10.7812 8.14897 10.7812 7.5C10.7812 6.62976 10.4355 5.79516 9.82018 5.17981C9.20483 4.56445 8.37023 4.21875 7.49999 4.21875Z" fill="black"/>
</svg>
