<svg width="15" height="14" viewBox="0 0 15 14" fill="none" xmlns="http://www.w3.org/2000/svg">
<path fill-rule="evenodd" clip-rule="evenodd" d="M11.4898 13.237C11.691 13.3795 11.9504 13.4151 12.1816 13.3276C12.4129 13.2395 12.5829 13.042 12.6341 12.8026C13.1773 10.2501 14.4948 3.78947 14.9891 1.46759C15.0266 1.29259 14.9641 1.11072 14.8266 0.993843C14.6891 0.876968 14.4985 0.843218 14.3285 0.906343C11.7079 1.87634 3.63726 4.90447 0.33851 6.12509C0.129135 6.20259 -0.00711462 6.40384 -0.000239623 6.62447C0.00726038 6.84572 0.15601 7.03759 0.370385 7.10197C1.84976 7.54447 3.79164 8.16009 3.79164 8.16009C3.79164 8.16009 4.69914 10.9007 5.17226 12.2945C5.23164 12.4695 5.36851 12.607 5.54914 12.6545C5.72914 12.7013 5.92164 12.652 6.05601 12.5251C6.81601 11.8076 7.99101 10.6982 7.99101 10.6982C7.99101 10.6982 10.2235 12.3351 11.4898 13.237ZM4.60851 7.81384L5.65789 11.2751L5.89101 9.08322C5.89101 9.08322 9.94539 5.42634 12.2566 3.34197C12.3241 3.28072 12.3335 3.17822 12.2773 3.10634C12.2216 3.03447 12.1191 3.01759 12.0423 3.06634C9.36351 4.77697 4.60851 7.81384 4.60851 7.81384Z" fill="black"/>
</svg>
