<svg width="15" height="15" viewBox="0 0 15 15" fill="none" xmlns="http://www.w3.org/2000/svg">
<path fill-rule="evenodd" clip-rule="evenodd" d="M14.2002 3.86719C14.3045 3.53672 14.2002 3.29648 13.7388 3.29648H12.2045C11.8175 3.29648 11.6388 3.50684 11.5345 3.73184C11.5345 3.73184 10.7452 5.65371 9.64307 6.89971C9.28564 7.26006 9.12188 7.38018 8.92822 7.38018C8.82393 7.38018 8.68975 7.26006 8.68975 6.92988V3.85166C8.68975 3.46143 8.5708 3.28125 8.24297 3.28125H5.83008C5.5916 3.28125 5.44277 3.46143 5.44277 3.6416C5.44277 4.01689 5.99385 4.10713 6.05332 5.15801V7.44141C6.05332 7.93682 5.96543 8.02734 5.77031 8.02734C5.24912 8.02734 3.9832 6.09053 3.22383 3.88359C3.07617 3.44648 2.92617 3.28125 2.53887 3.28125H0.989941C0.543164 3.28125 0.46875 3.49131 0.46875 3.7166C0.46875 4.12207 0.989941 6.16377 2.89629 8.86611C4.16221 10.7118 5.96426 11.7038 7.5876 11.7038C8.5708 11.7038 8.68975 11.4785 8.68975 11.1032V9.70693C8.68975 9.25664 8.7791 9.18164 9.09199 9.18164C9.31524 9.18164 9.71748 9.30147 10.626 10.1874C11.6684 11.2383 11.8471 11.7188 12.428 11.7188H13.962C14.4088 11.7188 14.6174 11.4935 14.4981 11.0581C14.3643 10.6228 13.8577 9.99229 13.2023 9.2417C12.8449 8.82158 12.3088 8.35605 12.145 8.13076C11.9218 7.83047 11.9813 7.71035 12.145 7.44023C12.1301 7.44023 14.0068 4.76777 14.2002 3.86602" fill="black"/>
</svg>
