<svg width="50" height="50" viewBox="0 0 50 50" fill="none" xmlns="http://www.w3.org/2000/svg">
<path d="M44.0428 36.5233C42.492 34.9608 38.7362 32.6805 36.9139 31.7616C34.5408 30.5662 34.3455 30.4686 32.4803 31.8543C31.2362 32.7791 30.409 33.6053 28.953 33.2948C27.4969 32.9842 24.3328 31.2332 21.5623 28.4715C18.7918 25.7098 16.9393 22.4539 16.6278 21.0028C16.3162 19.5516 17.1561 18.7342 18.0721 17.4871C19.3631 15.7293 19.2655 15.4364 18.1619 13.0633C17.3016 11.2176 14.9549 7.4969 13.3865 5.95394C11.7088 4.29671 11.7088 4.58968 10.6278 5.0389C9.74765 5.4092 8.9033 5.85932 8.1053 6.38362C6.5428 7.42171 5.67561 8.28401 5.06916 9.57991C4.46272 10.8758 4.19026 13.9139 7.32209 19.6033C10.4539 25.2928 12.6512 28.202 17.199 32.7371C21.7469 37.2723 25.244 39.7108 30.3563 42.578C36.6805 46.12 39.1063 45.4295 40.4061 44.8241C41.7059 44.2186 42.5721 43.3592 43.6121 41.7967C44.1378 41 44.5889 40.1566 44.9598 39.2772C45.41 38.2 45.703 38.2 44.0428 36.5233Z" stroke="black" stroke-width="2" stroke-miterlimit="10"/>
</svg>
