<?xml version="1.0" standalone="no"?>
<!DOCTYPE svg PUBLIC "-//W3C//DTD SVG 20010904//EN"
 "http://www.w3.org/TR/2001/REC-SVG-20010904/DTD/svg10.dtd">
<svg version="1.0" xmlns="http://www.w3.org/2000/svg"
 width="700.000000pt" height="700.000000pt" viewBox="0 0 700.000000 700.000000"
 preserveAspectRatio="xMidYMid meet">
<metadata>
Created by potrace 1.11, written by Peter Selinger 2001-2013
</metadata>
<g transform="translate(0.000000,700.000000) scale(0.100000,-0.100000)"
fill="#000000" stroke="none">
<path d="M1800 4759 c-331 -10 -657 -40 -910 -82 l-75 -13 -3 -240 -2 -240
111 28 c451 110 1055 150 1654 107 131 -9 258 -22 333 -35 l32 -5 0 -344 0
-345 -830 0 -830 0 0 -230 0 -230 828 -2 827 -3 3 -622 2 -623 230 0 230 0 0
1389 c0 765 -4 1392 -8 1395 -16 9 -369 55 -544 71 -148 13 -750 38 -798 33
-8 -1 -121 -5 -250 -9z"/>
<path d="M4535 4759 c-334 -10 -659 -39 -915 -82 l-75 -13 0 -1389 0 -1390
230 0 230 0 3 623 2 622 825 0 825 0 0 230 0 230 -825 0 -825 0 0 344 0 344
28 6 c73 16 323 37 556 47 489 21 1056 -25 1419 -116 54 -14 104 -25 112 -25
13 0 15 36 15 235 0 180 -3 237 -12 240 -22 8 -288 44 -438 59 -324 34 -771
47 -1155 35z"/>
</g>
</svg>
